<?xml version="1.0" encoding="utf-8"?>
<!-- Generator: Adobe Illustrator 27.0.0, SVG Export Plug-In . SVG Version: 6.00 Build 0)  -->
<svg version="1.1" id="Capa_1" xmlns="http://www.w3.org/2000/svg" xmlns:xlink="http://www.w3.org/1999/xlink" x="0px" y="0px"
	 viewBox="0 0 64 64" style="enable-background:new 0 0 64 64;" xml:space="preserve">
<style type="text/css">
	.st0{fill:#BDBEBF;}
</style>
<path class="st0" d="M15.2,5.4c11.2,0,22.4,0,33.6,0c0.5,0.2,1.1,0.3,1.6,0.5c2.4,1,3.7,3.2,3.7,5.9c0,13.5,0,27,0,40.4
	c0,0.2,0,0.3,0,0.5c-0.1,3.3-2.7,5.9-6,5.9c-10.8,0-21.5,0-32.3,0c-0.8,0-1.7-0.2-2.4-0.5c-2.4-1.1-3.6-3.1-3.6-5.7
	c0-11.5,0-22.9,0-34.4c0-2.1,0-4.3,0-6.4c0-2.2,1-3.9,2.8-5C13.4,5.9,14.3,5.7,15.2,5.4z M32.1,12.1c-3.9,0-7.7,0-11.6,0
	c-2.3,0-3.9,1.6-4,3.9c0,1.1,0,2.1,0,3.2c0,2.3,1.6,4,3.9,4c7.7,0,15.4,0,23.1,0c2.3,0,3.9-1.7,3.9-4c0-1,0-2,0-3
	c0-2.5-1.6-4.1-4.1-4.1C39.6,12.1,35.8,12.1,32.1,12.1z M23.1,47.6c0.6,0.6,1,1.1,1.5,1.6c0.4,0.4,0.8,0.6,1.4,0.5
	c0.7-0.1,1.2-0.4,1.4-1.1c0.2-0.7,0.1-1.3-0.4-1.8c-0.5-0.5-1.1-1-1.6-1.6c0.6-0.6,1.1-1.1,1.6-1.6c0.8-0.9,0.6-2.2-0.4-2.7
	c-0.6-0.3-1.4-0.2-1.9,0.3c-0.5,0.5-1,1.1-1.6,1.6c-0.6-0.6-1.1-1.1-1.6-1.6c-0.4-0.4-0.8-0.6-1.4-0.5c-0.7,0.1-1.2,0.4-1.4,1.1
	c-0.2,0.6-0.1,1.2,0.4,1.7c0.5,0.5,1.1,1.1,1.7,1.6c-0.6,0.6-1.1,1-1.6,1.5c-0.7,0.7-0.8,1.7-0.1,2.4c0.7,0.7,1.7,0.7,2.4-0.1
	C22.1,48.7,22.6,48.2,23.1,47.6z M21.5,33.7c0,0.4,0,0.7,0,1c0,1,0.7,1.8,1.6,1.8c0.9,0,1.7-0.7,1.7-1.8c0-0.3,0-0.6,0-1
	c0.4,0,0.8,0,1.1,0c0.9,0,1.6-0.7,1.6-1.7c0-0.9-0.7-1.6-1.6-1.7c-0.4,0-0.7,0-1.1,0c0-0.5,0-0.8,0-1.2c-0.1-0.9-0.9-1.6-1.7-1.5
	c-0.9,0-1.6,0.7-1.6,1.7c0,0.4,0,0.7,0,1.1c-0.4,0-0.8,0-1.2,0c-0.9,0-1.6,0.8-1.6,1.7c0,0.9,0.7,1.6,1.6,1.6
	C20.7,33.7,21,33.7,21.5,33.7z M40.9,34.2c0.9,0,1.8,0,2.6,0c1,0,1.8-0.7,1.8-1.6c0-1-0.7-1.7-1.8-1.7c-1.8,0-3.6,0-5.3,0
	c-1,0-1.7,0.7-1.7,1.7c0,1,0.7,1.6,1.7,1.7C39.1,34.2,40,34.2,40.9,34.2z M40.8,44.2c0.9,0,1.8,0,2.7,0c1,0,1.8-0.7,1.8-1.6
	c0-0.9-0.7-1.7-1.7-1.7c-1.8,0-3.6,0-5.4,0c-1,0-1.7,0.7-1.7,1.7c0,1,0.7,1.6,1.8,1.6C39.1,44.2,40,44.2,40.8,44.2z M40.9,49.7
	c0.9,0,1.8,0,2.6,0c0,0,0.1,0,0.1,0c1-0.1,1.7-0.8,1.7-1.7c0-0.9-0.7-1.6-1.7-1.6c-1.8,0-3.6,0-5.4,0c-0.3,0-0.6,0.1-0.8,0.2
	c-0.7,0.3-1,1.1-0.8,1.8c0.2,0.7,0.8,1.2,1.6,1.3C39,49.7,40,49.7,40.9,49.7z"/>
</svg>
